<svg width="26" height="25" viewBox="0 0 26 25" fill="none" xmlns="http://www.w3.org/2000/svg">
<path d="M9 17.3333H3.66667C2.95942 17.3333 2.28115 17.0524 1.78105 16.5523C1.28095 16.0522 1 15.3739 1 14.6666V3.99998C1 3.29274 1.28095 2.61446 1.78105 2.11436C2.28115 1.61426 2.95942 1.33331 3.66667 1.33331H22.3333C23.0406 1.33331 23.7189 1.61426 24.219 2.11436C24.719 2.61446 25 3.29274 25 3.99998V14.6666C25 15.3739 24.719 16.0522 24.219 16.5523C23.7189 17.0524 23.0406 17.3333 22.3333 17.3333H15.6667L9 24V17.3333Z" stroke="#787491" stroke-width="2" stroke-linecap="round" stroke-linejoin="round"/>
</svg>
